<svg width="62" height="40" viewBox="0 0 62 40" fill="white" xmlns="http://www.w3.org/2000/svg">
<mask id="mask0_236_7256" style="mask-type:alpha" maskUnits="userSpaceOnUse" x="16" y="10" width="24" height="24">
<rect x="16" y="10" width="24" height="24" fill="#none"/>
</mask>
<g mask="url(#mask0_236_7256)">
<path d="M21 31C20.7167 31 20.4584 30.9125 20.225 30.7375C19.9917 30.5625 19.8334 30.3333 19.75 30.05L16.95 19.95C16.8667 19.7167 16.9042 19.5 17.0625 19.3C17.2209 19.1 17.4334 19 17.7 19H22.75L27.15 12.45C27.2334 12.3167 27.35 12.2083 27.5 12.125C27.65 12.0417 27.8084 12 27.975 12C28.1417 12 28.3 12.0417 28.45 12.125C28.6 12.2083 28.7167 12.3167 28.8 12.45L33.2 19H38.3C38.5667 19 38.7792 19.1 38.9375 19.3C39.0959 19.5 39.1334 19.7167 39.05 19.95L36.25 30.05C36.1667 30.3333 36.0084 30.5625 35.775 30.7375C35.5417 30.9125 35.2834 31 35 31H21ZM21.5 29H34.5L36.7 21H19.3L21.5 29ZM25.175 19H30.8L27.975 14.8L25.175 19Z" fill="white"/>
</g>
</svg>
